/*
 * @(#)$Header: /mm2/home/cvs/bc-src/tgif/tgificon.xbm,v 1.1 2004/06/18 23:19:38 william Exp $
 */
#define tgificon_width 48
#define tgificon_height 48
#define tgificon_x_hot 0
#define tgificon_y_hot 0
static unsigned char tgificon_bits[] = {
   0x00, 0x00, 0x00, 0x00, 0x00, 0x00, 0x00, 0x00, 0x00, 0x00, 0x00, 0x00,
   0x00, 0x00, 0x00, 0x01, 0x00, 0x00, 0x00, 0x00, 0x80, 0x02, 0x00, 0x00,
   0x00, 0x00, 0x40, 0x04, 0x00, 0x00, 0x00, 0x00, 0x20, 0x08, 0x00, 0x00,
   0x00, 0x00, 0x10, 0x10, 0x00, 0x00, 0x00, 0x00, 0xc8, 0x27, 0x00, 0x00,
   0x00, 0x00, 0x84, 0x41, 0x00, 0x00, 0x00, 0x00, 0x82, 0x81, 0x00, 0x00,
   0x00, 0x00, 0xc1, 0x00, 0x01, 0x00, 0x00, 0x80, 0xc0, 0x00, 0x02, 0x00,
   0x00, 0x40, 0x00, 0x00, 0x04, 0x00, 0x00, 0xe0, 0xff, 0xff, 0x0f, 0x00,
   0x00, 0x30, 0x00, 0x03, 0x10, 0x00, 0x00, 0x28, 0x00, 0x05, 0x20, 0x00,
   0x00, 0x24, 0x00, 0x09, 0x40, 0x00, 0x00, 0x22, 0x1c, 0x11, 0x80, 0x00,
   0x00, 0x21, 0x12, 0x21, 0x00, 0x01, 0x80, 0x20, 0x02, 0x41, 0x00, 0x02,
   0x40, 0x20, 0x1a, 0x81, 0x00, 0x04, 0x20, 0x20, 0x1c, 0x01, 0x01, 0x08,
   0x10, 0x20, 0x00, 0x01, 0x02, 0x10, 0x08, 0x20, 0x00, 0x01, 0x04, 0x20,
   0xfc, 0xff, 0xff, 0xff, 0xff, 0x7f, 0x08, 0x00, 0x00, 0x01, 0x00, 0x20,
   0x10, 0x00, 0x00, 0x01, 0x00, 0x10, 0x20, 0x00, 0x00, 0xe1, 0x01, 0x08,
   0x40, 0x00, 0x00, 0xc1, 0x00, 0x04, 0x80, 0x00, 0x00, 0xc1, 0x00, 0x02,
   0x00, 0x01, 0x00, 0x61, 0x00, 0x01, 0x00, 0x02, 0x3c, 0x61, 0x80, 0x00,
   0x00, 0x04, 0x0c, 0xf1, 0x40, 0x00, 0x00, 0x08, 0x1c, 0x01, 0x20, 0x00,
   0x00, 0x10, 0x06, 0x01, 0x10, 0x00, 0x00, 0x20, 0x06, 0x01, 0x08, 0x00,
   0x00, 0x40, 0x06, 0x01, 0x04, 0x00, 0x00, 0x80, 0x00, 0x01, 0x02, 0x00,
   0x00, 0x00, 0x01, 0x01, 0x01, 0x00, 0x00, 0x00, 0x02, 0x81, 0x00, 0x00,
   0x00, 0x00, 0x04, 0x41, 0x00, 0x00, 0x00, 0x00, 0x08, 0x21, 0x00, 0x00,
   0x00, 0x00, 0x10, 0x11, 0x00, 0x00, 0x00, 0x00, 0x20, 0x09, 0x00, 0x00,
   0x00, 0x00, 0x40, 0x05, 0x00, 0x00, 0x00, 0x00, 0x80, 0x03, 0x00, 0x00,
   0x00, 0x00, 0x00, 0x01, 0x00, 0x00, 0x00, 0x00, 0x00, 0x00, 0x00, 0x00};
