/*
 * @(#)$Header: /mm2/home/cvs/bc-src/tgif/xbm/abc.xbm,v 1.1 2004/06/18 23:18:44 william Exp $
 */
#define abc_width 20
#define abc_height 7
#define abc_x_hot 0
#define abc_y_hot 0
static unsigned char abc_bits[] = {
   0x80, 0x01, 0xf0, 0x00, 0x01, 0xf0, 0x1e, 0x0f, 0xff, 0x10, 0x91, 0xf0,
   0x1e, 0x91, 0xf0, 0x11, 0x91, 0xf0, 0xbe, 0x0f, 0xff};
