/*
 * @(#)$Header: /mm2/home/cvs/bc-src/tgif/xbm/btn1.xbm,v 1.1 2004/06/18 23:18:44 william Exp $
 */
#define btn1_width 16
#define btn1_height 16
#define btn1_x_hot 0
#define btn1_y_hot 0
static unsigned char btn1_bits[] = {
   0xfe, 0x3f, 0x01, 0x40, 0x01, 0x40, 0xdd, 0x5d, 0x5d, 0x55, 0x5d, 0x55,
   0x5d, 0x55, 0x5d, 0x55, 0xdd, 0x5d, 0x01, 0x40, 0x01, 0x40, 0x01, 0x40,
   0x01, 0x40, 0x01, 0x40, 0x01, 0x40, 0xfe, 0x3f};
