/*
 * @(#)$Header: /mm2/home/cvs/bc-src/tgif/xbm/btn3.xbm,v 1.1 2004/06/18 23:18:44 william Exp $
 */
#define btn3_width 16
#define btn3_height 16
#define btn3_x_hot 0
#define btn3_y_hot 0
static unsigned char btn3_bits[] = {
   0xfe, 0x3f, 0x01, 0x40, 0x01, 0x40, 0xdd, 0x5d, 0x55, 0x5d, 0x55, 0x5d,
   0x55, 0x5d, 0x55, 0x5d, 0xdd, 0x5d, 0x01, 0x40, 0x01, 0x40, 0x01, 0x40,
   0x01, 0x40, 0x01, 0x40, 0x01, 0x40, 0xfe, 0x3f};
