/*
 * @(#)$Header: /mm2/home/cvs/bc-src/tgif/xbm/check.xbm,v 1.1 2004/06/18 23:18:44 william Exp $
 */
#define check_width 9
#define check_height 9
static unsigned char check_bits[] = {
   0x00, 0x00, 0x80, 0x00, 0xc0, 0x00, 0xe2, 0x00, 0x76, 0x00, 0x3e, 0x00,
   0x1c, 0x00, 0x08, 0x00, 0x00, 0x00};
