/*
 * @(#)$Header: /mm2/home/cvs/bc-src/tgif/xbm/chkall.xbm,v 1.1 2004/06/18 23:18:44 william Exp $
 */
#define chkall_width 16
#define chkall_height 16
#define chkall_x_hot 0
#define chkall_y_hot 0
static unsigned char chkall_bits[] = {
   0xff, 0xff, 0x01, 0x80, 0xfd, 0x81, 0x8d, 0x81, 0x55, 0x81, 0x25, 0x81,
   0x55, 0x81, 0x8d, 0x81, 0xfd, 0x81, 0x01, 0x80, 0x01, 0x9c, 0x01, 0x8c,
   0x01, 0x94, 0x01, 0xa0, 0x01, 0x80, 0xff, 0xff};
