/*
 * @(#)$Header: /mm2/home/cvs/bc-src/tgif/xbm/dnarrow.xbm,v 1.1 2004/06/18 23:18:44 william Exp $
 */
#define dnarrow_width 16
#define dnarrow_height 16
#define dnarrow_x_hot 0
#define dnarrow_y_hot 0
static unsigned char dnarrow_bits[] = {
   0xff, 0xff, 0x01, 0x80, 0x01, 0x80, 0x01, 0x80, 0xfd, 0xbf, 0x09, 0x90,
   0x09, 0x90, 0x11, 0x88, 0x21, 0x84, 0x21, 0x84, 0x41, 0x82, 0x41, 0x82,
   0x81, 0x81, 0x01, 0x80, 0x01, 0x80, 0xff, 0xff};
