/*
 * @(#)$Header: /mm2/home/cvs/bc-src/tgif/xbm/ls3.xbm,v 1.1 2004/06/18 23:18:44 william Exp $
 */
#define ls3_width 64
#define ls3_height 20
#define ls3_x_hot 0
#define ls3_y_hot 0
static unsigned char ls3_bits[] = {
   0x00, 0x00, 0x00, 0x00, 0x00, 0x00, 0x00, 0x00, 0x00, 0x00, 0x00, 0x00,
   0x00, 0x00, 0x00, 0x00, 0x00, 0x00, 0x00, 0x00, 0x00, 0x00, 0x00, 0x00,
   0x00, 0x00, 0x00, 0x00, 0x00, 0x00, 0x00, 0x00, 0x00, 0x00, 0x00, 0x00,
   0x00, 0x00, 0x00, 0x00, 0x00, 0x08, 0x00, 0x00, 0x00, 0x00, 0x10, 0x00,
   0x00, 0x06, 0x00, 0x00, 0x00, 0x00, 0x60, 0x00, 0x80, 0x01, 0x00, 0x00,
   0x00, 0x00, 0x80, 0x01, 0x60, 0x00, 0x00, 0x00, 0x00, 0x00, 0x00, 0x06,
   0xf8, 0xff, 0xff, 0xff, 0xff, 0xff, 0xff, 0x1f, 0x60, 0x00, 0x00, 0x00,
   0x00, 0x00, 0x00, 0x06, 0x80, 0x01, 0x00, 0x00, 0x00, 0x00, 0x80, 0x01,
   0x00, 0x06, 0x00, 0x00, 0x00, 0x00, 0x60, 0x00, 0x00, 0x08, 0x00, 0x00,
   0x00, 0x00, 0x10, 0x00, 0x00, 0x00, 0x00, 0x00, 0x00, 0x00, 0x00, 0x00,
   0x00, 0x00, 0x00, 0x00, 0x00, 0x00, 0x00, 0x00, 0x00, 0x00, 0x00, 0x00,
   0x00, 0x00, 0x00, 0x00, 0x00, 0x00, 0x00, 0x00, 0x00, 0x00, 0x00, 0x00,
   0x00, 0x00, 0x00, 0x00, 0x00, 0x00, 0x00, 0x00, 0x00, 0x00, 0x00, 0x00,
   0x00, 0x00, 0x00, 0x00};
