/*
 * @(#)$Header: /mm2/home/cvs/bc-src/tgif/xbm/pat18.xbm,v 1.1 2004/06/18 23:18:44 william Exp $
 */
#define pat18_width 8
#define pat18_height 8
static unsigned char pat18_bits[] = {
   0x10, 0x38, 0x44, 0x83, 0x01, 0x80, 0x40, 0x20};
