/*
 * @(#)$Header: /mm2/home/cvs/bc-src/tgif/xbm/pat21.xbm,v 1.1 2004/06/18 23:18:45 william Exp $
 */
#define pat21_width 8
#define pat21_height 8
static unsigned char pat21_bits[] = {
   0x11, 0x22, 0x44, 0x88, 0x11, 0x22, 0x44, 0x88};
