/*
 * @(#)$Header: /mm2/home/cvs/bc-src/tgif/xbm/radio.xbm,v 1.1 2004/06/18 23:18:45 william Exp $
 */
#define radio_width 9
#define radio_height 9
static unsigned char radio_bits[] = {
   0x00, 0x00, 0x38, 0x00, 0x7c, 0x00, 0xfe, 0x00, 0xfe, 0x00, 0xfe, 0x00,
   0x7c, 0x00, 0x38, 0x00, 0x00, 0x00};
