/*
 * @(#)$Header: /mm2/home/cvs/bc-src/tgif/xbm/rightend.xbm,v 1.1 2004/06/18 23:18:45 william Exp $
 */
#define rightend_width 16
#define rightend_height 16
#define rightend_x_hot 0
#define rightend_y_hot 0
static unsigned char rightend_bits[] = {
   0xff, 0xff, 0x01, 0x80, 0x09, 0x90, 0x39, 0x90, 0x49, 0x90, 0x89, 0x91,
   0x09, 0x96, 0x09, 0x98, 0x09, 0x98, 0x09, 0x96, 0x89, 0x91, 0x49, 0x90,
   0x39, 0x90, 0x09, 0x90, 0x01, 0x80, 0xff, 0xff};
