/*
 * @(#)$Header: /mm2/home/cvs/bc-src/tgif/xbm/unchkall.xbm,v 1.1 2004/06/18 23:18:45 william Exp $
 */
#define unchkall_width 16
#define unchkall_height 16
#define unchkall_x_hot 0
#define unchkall_y_hot 0
static unsigned char unchkall_bits[] = {
   0xff, 0xff, 0x01, 0x80, 0xfd, 0x81, 0x05, 0x81, 0x05, 0x81, 0x05, 0x81,
   0x05, 0x81, 0x05, 0x81, 0xfd, 0x81, 0x01, 0x80, 0x01, 0x9c, 0x01, 0x8c,
   0x01, 0x94, 0x01, 0xa0, 0x01, 0x80, 0xff, 0xff};
