/*
 * @(#)$Header: /mm2/home/cvs/bc-src/tgif/xbm/corner.xbm,v 1.1 2004/06/18 23:18:44 william Exp $
 */
#define corner_width 16
#define corner_height 16
#define corner_x_hot 0
#define corner_y_hot 0
static unsigned char corner_bits[] = {
   0xff, 0xff, 0xff, 0xff, 0xff, 0xff, 0xff, 0xff, 0x0f, 0x00, 0x0f, 0x00,
   0x0f, 0x00, 0x0f, 0x00, 0x0f, 0x00, 0x0f, 0x00, 0x0f, 0x00, 0x0f, 0x00,
   0x0f, 0x00, 0x0f, 0x00, 0x0f, 0x00, 0x0f, 0x00};
