/*
 * @(#)$Header: /mm2/home/cvs/bc-src/tgif/xbm/gsubmenu.xbm,v 1.1 2004/06/18 23:18:44 william Exp $
 */
#define gsubmenu_width 9
#define gsubmenu_height 9
static unsigned char gsubmenu_bits[] = {
   0x00, 0x00, 0x08, 0x00, 0x10, 0x00, 0x28, 0x00, 0x50, 0x00, 0x28, 0x00,
   0x10, 0x00, 0x08, 0x00, 0x00, 0x00};
