/*
 * @(#)$Header: /mm2/home/cvs/bc-src/tgif/xbm/intr90.xbm,v 1.1 2004/06/18 23:18:44 william Exp $
 */
#define intr90_width 16
#define intr90_height 16
#define intr90_x_hot 0
#define intr90_y_hot 0
static unsigned char intr90_bits[] = {
   0xe0, 0x03, 0x98, 0x0f, 0x84, 0x1f, 0x82, 0x3f, 0x82, 0x3f, 0x81, 0x7f,
   0x81, 0x7f, 0xff, 0x7f, 0xff, 0x40, 0xff, 0x40, 0xfe, 0x20, 0xfe, 0x20,
   0xfc, 0x10, 0xf8, 0x0c, 0xe0, 0x03, 0x00, 0x00};
