/*
 * @(#)$Header: /mm2/home/cvs/bc-src/tgif/xbm/intr.xbm,v 1.1 2004/06/18 23:18:44 william Exp $
 */
#define intr_width 16
#define intr_height 16
#define intr_x_hot 0
#define intr_y_hot 0
static unsigned char intr_bits[] = {
   0xe0, 0x03, 0xf8, 0x0c, 0xfc, 0x10, 0xfe, 0x20, 0xfe, 0x20, 0xff, 0x40,
   0xff, 0x40, 0xff, 0x7f, 0x81, 0x7f, 0x81, 0x7f, 0x82, 0x3f, 0x82, 0x3f,
   0x84, 0x1f, 0x98, 0x0f, 0xe0, 0x03, 0x00, 0x00};
