/*
 * @(#)$Header: /mm2/home/cvs/bc-src/tgif/xbm/leftend.xbm,v 1.1 2004/06/18 23:18:44 william Exp $
 */
#define leftend_width 16
#define leftend_height 16
#define leftend_x_hot 0
#define leftend_y_hot 0
static unsigned char leftend_bits[] = {
   0xff, 0xff, 0x01, 0x80, 0x09, 0x90, 0x09, 0x9c, 0x09, 0x92, 0x89, 0x91,
   0x69, 0x90, 0x19, 0x90, 0x19, 0x90, 0x69, 0x90, 0x89, 0x91, 0x09, 0x92,
   0x09, 0x9c, 0x09, 0x90, 0x01, 0x80, 0xff, 0xff};
