/*
 * @(#)$Header: /mm2/home/cvs/bc-src/tgif/xbm/lfarrow.xbm,v 1.1 2004/06/18 23:18:44 william Exp $
 */
#define lfarrow_width 16
#define lfarrow_height 16
#define lfarrow_x_hot 0
#define lfarrow_y_hot 0
static unsigned char lfarrow_bits[] = {
   0xff, 0xff, 0x01, 0x80, 0x01, 0x88, 0x01, 0x8e, 0x01, 0x89, 0xc1, 0x88,
   0x31, 0x88, 0x09, 0x88, 0x09, 0x88, 0x31, 0x88, 0xc1, 0x88, 0x01, 0x89,
   0x01, 0x8e, 0x01, 0x88, 0x01, 0x80, 0xff, 0xff};
