/*
 * @(#)$Header: /mm2/home/cvs/bc-src/tgif/xbm/lt1.xbm,v 1.1 2004/06/18 23:18:44 william Exp $
 */
#define lt1_width 64
#define lt1_height 20
#define lt1_x_hot 0
#define lt1_y_hot 0
static unsigned char lt1_bits[] = {
   0x00, 0x00, 0x00, 0x00, 0x00, 0x00, 0x00, 0x00, 0x00, 0x00, 0x00, 0x00,
   0x00, 0x00, 0x00, 0x00, 0x00, 0x00, 0x00, 0x00, 0x00, 0x00, 0x00, 0x00,
   0x00, 0x00, 0x00, 0x00, 0x00, 0x00, 0x00, 0x00, 0x00, 0x00, 0xfe, 0x01,
   0x00, 0x00, 0x00, 0x00, 0x00, 0xc0, 0x03, 0x0e, 0x00, 0x00, 0x00, 0x00,
   0x00, 0x60, 0x00, 0x30, 0x00, 0x00, 0x00, 0x00, 0x00, 0x1c, 0x00, 0xc0,
   0x00, 0x00, 0x00, 0x00, 0x00, 0x06, 0x00, 0x80, 0x01, 0x00, 0x00, 0x00,
   0x00, 0x03, 0x00, 0x00, 0x03, 0x00, 0x00, 0x00, 0x00, 0x00, 0x00, 0x00,
   0x0c, 0x00, 0x00, 0x0c, 0x00, 0x00, 0x00, 0x00, 0x18, 0x00, 0x00, 0x06,
   0x00, 0x00, 0x00, 0x00, 0x30, 0x00, 0x80, 0x03, 0x00, 0x00, 0x00, 0x00,
   0xc0, 0x00, 0x60, 0x00, 0x00, 0x00, 0x00, 0x00, 0x00, 0x07, 0x3c, 0x00,
   0x00, 0x00, 0x00, 0x00, 0x00, 0xf8, 0x07, 0x00, 0x00, 0x00, 0x00, 0x00,
   0x00, 0x00, 0x00, 0x00, 0x00, 0x00, 0x00, 0x00, 0x00, 0x00, 0x00, 0x00,
   0x00, 0x00, 0x00, 0x00, 0x00, 0x00, 0x00, 0x00, 0x00, 0x00, 0x00, 0x00,
   0x00, 0x00, 0x00, 0x00};
