/*
 * @(#)$Header: /mm2/home/cvs/bc-src/tgif/xbm/lt3.xbm,v 1.2 2009/07/13 21:20:50 william Exp $
 */
#define lt3_width 64
#define lt3_height 20
#define lt3_x_hot 0
#define lt3_y_hot 0
static unsigned char lt3_bits[] = {
   0x00, 0x00, 0x00, 0x00, 0x00, 0x00, 0x00, 0x00, 0x00, 0x00, 0x00, 0x00,
   0x00, 0x00, 0x00, 0x00, 0x00, 0x00, 0x38, 0x00, 0x00, 0x00, 0x00, 0x00,
   0x00, 0x00, 0x44, 0x00, 0x00, 0x00, 0x00, 0x00, 0x00, 0x00, 0x74, 0x00,
   0x00, 0x00, 0x00, 0x00, 0x00, 0x00, 0xc4, 0x01, 0x00, 0x00, 0x00, 0x00,
   0x00, 0x00, 0x38, 0x18, 0x7c, 0x00, 0x00, 0x00, 0x00, 0x00, 0x00, 0xfe,
   0x45, 0x00, 0x00, 0x00, 0x00, 0x00, 0xf0, 0x01, 0x5f, 0x00, 0x00, 0x00,
   0x00, 0x00, 0x0c, 0x00, 0xc4, 0x01, 0x00, 0x00, 0x00, 0x00, 0x03, 0x00,
   0x7c, 0x18, 0x38, 0x00, 0x00, 0xc0, 0x00, 0x00, 0x00, 0x80, 0x45, 0x00,
   0x00, 0x20, 0x00, 0x00, 0x00, 0x00, 0x4c, 0x00, 0x00, 0x18, 0x00, 0x00,
   0x00, 0x00, 0x44, 0x00, 0xc0, 0x0f, 0x00, 0x00, 0x00, 0x00, 0x38, 0x00,
   0x40, 0x06, 0x00, 0x00, 0x00, 0x00, 0x00, 0x00, 0x40, 0x05, 0x00, 0x00,
   0x00, 0x00, 0x00, 0x00, 0x40, 0x04, 0x00, 0x00, 0x00, 0x00, 0x00, 0x00,
   0xc0, 0x07, 0x00, 0x00, 0x00, 0x00, 0x00, 0x00, 0x00, 0x00, 0x00, 0x00,
   0x00, 0x00, 0x00, 0x00};
