/*
 * @(#)$Header: /mm2/home/cvs/bc-src/tgif/xbm/pat29.xbm,v 1.1 2004/06/18 23:18:45 william Exp $
 */
#define pat29_width 8
#define pat29_height 8
static unsigned char pat29_bits[] = {
   0xc1, 0xe0, 0x70, 0x38, 0x1c, 0x0e, 0x07, 0x83};
