/*
 * @(#)$Header: /mm2/home/cvs/bc-src/tgif/xbm/pat3.xbm,v 1.1 2004/06/18 23:18:45 william Exp $
 */
#define pat3_width 8
#define pat3_height 8
static unsigned char pat3_bits[] = {
   0x01, 0x00, 0x00, 0x00, 0x10, 0x00, 0x00, 0x00};
