/*
 * @(#)$Header: /mm2/home/cvs/bc-src/tgif/xbm/pat32.xbm,v 1.1 2004/06/18 23:18:45 william Exp $
 */
#define pat32_width 8
#define pat32_height 8
static unsigned char pat32_bits[] = {
   0x01, 0x08, 0x40, 0x04, 0x80, 0x10, 0x02, 0x20};
