/*
 * @(#)$Header: /mm2/home/cvs/bc-src/tgif/xbm/pat4.xbm,v 1.1 2004/06/18 23:18:45 william Exp $
 */
#define pat4_width 8
#define pat4_height 8
static unsigned char pat4_bits[] = {
   0x11, 0x00, 0x00, 0x00, 0x44, 0x00, 0x00, 0x00};
