/*
 * @(#)$Header: /mm2/home/cvs/bc-src/tgif/xbm/pat6.xbm,v 1.1 2004/06/18 23:18:45 william Exp $
 */
#define pat6_width 8
#define pat6_height 8
static unsigned char pat6_bits[] = {
   0x11, 0x44, 0x11, 0x44, 0x11, 0x44, 0x11, 0x44};
