/*
 * @(#)$Header: /mm2/home/cvs/bc-src/tgif/xbm/rtarrow.xbm,v 1.1 2004/06/18 23:18:45 william Exp $
 */
#define rtarrow_width 16
#define rtarrow_height 16
#define rtarrow_x_hot 0
#define rtarrow_y_hot 0
static unsigned char rtarrow_bits[] = {
   0xff, 0xff, 0x01, 0x80, 0x11, 0x80, 0x71, 0x80, 0x91, 0x80, 0x11, 0x83,
   0x11, 0x8c, 0x11, 0x90, 0x11, 0x90, 0x11, 0x8c, 0x11, 0x83, 0x91, 0x80,
   0x71, 0x80, 0x11, 0x80, 0x01, 0x80, 0xff, 0xff};
