/*
 * @(#)$Header: /mm2/home/cvs/bc-src/tgif/xbm/run.xbm,v 1.1 2004/06/18 23:18:45 william Exp $
 */
#define run_width 16
#define run_height 16
#define run_x_hot 0
#define run_y_hot 0
static unsigned char run_bits[] = {
   0x00, 0x00, 0x00, 0x00, 0x00, 0x03, 0x80, 0x04, 0x80, 0x04, 0x00, 0x03,
   0x00, 0x07, 0x00, 0x0b, 0x80, 0x13, 0x60, 0x03, 0x00, 0x07, 0x00, 0x0b,
   0xc0, 0x10, 0x30, 0x0c, 0x00, 0x00, 0xfe, 0x03};
