/*
 * @(#)$Header: /mm2/home/cvs/bc-src/tgif/xbm/scrl_lf.xbm,v 1.1 2004/06/18 23:18:45 william Exp $
 */
#define scrl_lf_width 9
#define scrl_lf_height 9
static unsigned char scrl_lf_bits[] = {
   0x00, 0x00, 0x20, 0x00, 0x30, 0x00, 0x38, 0x00, 0x3c, 0x00, 0x38, 0x00,
   0x30, 0x00, 0x20, 0x00, 0x00, 0x00};
