/*
 * @(#)$Header: /mm2/home/cvs/bc-src/tgif/xbm/submenu.xbm,v 1.1 2004/06/18 23:18:45 william Exp $
 */
#define submenu_width 9
#define submenu_height 9
static unsigned char submenu_bits[] = {
   0x00, 0x00, 0x08, 0x00, 0x18, 0x00, 0x38, 0x00, 0x78, 0x00, 0x38, 0x00,
   0x18, 0x00, 0x08, 0x00, 0x00, 0x00};
