/*
 * @(#)$Header: /mm2/home/cvs/bc-src/tgif/xbm/tgtwb5.xbm,v 1.1 2004/06/18 23:18:45 william Exp $
 */
#define tgtwb5_width 208
#define tgtwb5_height 64
#define tgtwb5_x_hot 0
#define tgtwb5_y_hot 0
static unsigned char tgtwb5_bits[] = {
   0x00, 0x00, 0x00, 0x00, 0x00, 0x00, 0x00, 0x00, 0x00, 0x00, 0x00, 0x00, 
   0x00, 0x00, 0x00, 0x00, 0x00, 0x00, 0x00, 0x00, 0x00, 0x00, 0x00, 0x00, 
   0x00, 0x00, 0x00, 0x00, 0x00, 0x00, 0x00, 0x00, 0xfc, 0x07, 0x00, 0x00, 
   0x08, 0x10, 0x00, 0x00, 0x00, 0x00, 0x80, 0x00, 0x00, 0x04, 0x00, 0x00, 
   0x20, 0x00, 0x10, 0x00, 0xc0, 0x07, 0x00, 0x01, 0x20, 0x01, 0x10, 0x04, 
   0xfe, 0x3f, 0x10, 0x08, 0x00, 0x00, 0xfc, 0x0f, 0x80, 0x00, 0x20, 0x04, 
   0x40, 0x04, 0x20, 0x00, 0x10, 0x00, 0x40, 0x00, 0x00, 0x01, 0x20, 0x01, 
   0x10, 0x04, 0x90, 0x00, 0x20, 0x04, 0x00, 0x00, 0x20, 0x08, 0x88, 0x08, 
   0x20, 0x04, 0x40, 0x04, 0x10, 0x00, 0x08, 0x00, 0x40, 0x00, 0x80, 0x01, 
   0x20, 0x01, 0x10, 0x04, 0x90, 0x00, 0x40, 0x02, 0x00, 0x00, 0x20, 0x08, 
   0x88, 0x08, 0x20, 0x04, 0x20, 0x02, 0xf8, 0x1f, 0xfc, 0x1f, 0x20, 0x00, 
   0x40, 0x01, 0x20, 0x01, 0x08, 0x02, 0x88, 0x00, 0x00, 0x01, 0x00, 0x00, 
   0x20, 0x08, 0x88, 0x08, 0x20, 0x04, 0x20, 0x02, 0x80, 0x10, 0x00, 0x10, 
   0xe0, 0x01, 0x00, 0x01, 0x20, 0x01, 0x08, 0x02, 0xf8, 0x1f, 0x80, 0x00, 
   0x00, 0x00, 0x20, 0x08, 0x88, 0x08, 0x20, 0x04, 0x10, 0x01, 0x80, 0x10, 
   0x00, 0x10, 0x20, 0x02, 0x00, 0x01, 0x20, 0x01, 0xf8, 0x1f, 0x80, 0x10, 
   0x80, 0x00, 0x00, 0x00, 0x20, 0x08, 0x88, 0x08, 0x20, 0x04, 0x10, 0x01, 
   0x80, 0x10, 0x00, 0x10, 0x00, 0x04, 0x00, 0x01, 0x20, 0x01, 0x00, 0x10, 
   0x80, 0x10, 0x80, 0x00, 0xfe, 0x7f, 0x20, 0x04, 0x88, 0x08, 0x10, 0x06, 
   0x88, 0x00, 0x80, 0x10, 0x00, 0x10, 0x00, 0x04, 0x00, 0x01, 0x20, 0x01, 
   0x00, 0x10, 0x80, 0x10, 0x80, 0x00, 0x00, 0x00, 0xa0, 0x04, 0xf8, 0x0f, 
   0x90, 0x05, 0x10, 0x01, 0x40, 0x10, 0x00, 0x10, 0x00, 0x04, 0x00, 0x01, 
   0x20, 0x01, 0x00, 0x10, 0x40, 0x10, 0x80, 0x00, 0x00, 0x00, 0x20, 0x03, 
   0x80, 0x00, 0x70, 0x04, 0x10, 0x01, 0x40, 0x10, 0x00, 0x10, 0x10, 0x04, 
   0x00, 0x01, 0x10, 0x01, 0x00, 0x08, 0x40, 0x10, 0x80, 0x00, 0x00, 0x00, 
   0x20, 0x00, 0x80, 0x00, 0x00, 0x04, 0x20, 0x02, 0x20, 0x10, 0x00, 0x10, 
   0x20, 0x02, 0x00, 0x01, 0x10, 0x21, 0x00, 0x08, 0x20, 0x08, 0x80, 0x00, 
   0x00, 0x00, 0x20, 0x00, 0x80, 0x00, 0x00, 0x04, 0x20, 0x02, 0x10, 0x08, 
   0x00, 0x08, 0xc0, 0x01, 0x00, 0x01, 0x08, 0x21, 0x00, 0x04, 0x10, 0x08, 
   0x80, 0x00, 0x00, 0x00, 0x20, 0x00, 0xfe, 0x3f, 0x00, 0x04, 0x40, 0x04, 
   0x88, 0x08, 0x80, 0x08, 0x00, 0x00, 0x00, 0x00, 0x06, 0x3e, 0x00, 0x02, 
   0x08, 0x04, 0x80, 0x00, 0x00, 0x00, 0x20, 0x00, 0x00, 0x00, 0x00, 0x04, 
   0x40, 0x04, 0x04, 0x05, 0x00, 0x05, 0x00, 0x00, 0x00, 0x00, 0x00, 0x00, 
   0x00, 0x00, 0x00, 0x00, 0x80, 0x00, 0x00, 0x00, 0x20, 0x00, 0x00, 0x00, 
   0x00, 0x04, 0x00, 0x00, 0x00, 0x02, 0x00, 0x02, 0x00, 0x00, 0x00, 0x00, 
   0x00, 0x00, 0x00, 0x00, 0x00, 0x00, 0x00, 0x00, 0x00, 0x00, 0x00, 0x00, 
   0x00, 0x00, 0x00, 0x00, 0x00, 0x00, 0x00, 0x00, 0x00, 0x00, 0x00, 0x00, 
   0x00, 0x00, 0x00, 0x00, 0x10, 0x00, 0x00, 0x00, 0x00, 0x00, 0x00, 0x08, 
   0x40, 0x00, 0x00, 0x02, 0x00, 0x01, 0x00, 0x00, 0x80, 0x00, 0x20, 0x00, 
   0x00, 0x00, 0x80, 0x03, 0x00, 0x00, 0x10, 0x00, 0x38, 0x00, 0xfe, 0x3f, 
   0x00, 0x08, 0x40, 0x00, 0x00, 0x01, 0x00, 0x01, 0xfe, 0x3f, 0x80, 0x00, 
   0x20, 0x00, 0x00, 0x00, 0x40, 0x04, 0x00, 0x00, 0x10, 0x00, 0x20, 0x00, 
   0x80, 0x00, 0x00, 0x08, 0x40, 0x00, 0x80, 0x00, 0x00, 0x01, 0x40, 0x00, 
   0x80, 0x00, 0x10, 0x00, 0x00, 0x00, 0x20, 0x08, 0x00, 0x00, 0x10, 0x00, 
   0x20, 0x00, 0x80, 0x00, 0x10, 0x04, 0xfe, 0x3f, 0x40, 0x00, 0x80, 0x00, 
   0x40, 0x00, 0x80, 0x00, 0xf8, 0x1f, 0x00, 0x00, 0x20, 0x08, 0x00, 0x00, 
   0x08, 0x00, 0x20, 0x00, 0x80, 0x00, 0x20, 0x04, 0x20, 0x00, 0x20, 0x02, 
   0x80, 0x00, 0x20, 0x00, 0xfe, 0x3f, 0x00, 0x10, 0x00, 0x00, 0x00, 0x08, 
   0x00, 0x00, 0x08, 0x00, 0x40, 0x00, 0xf0, 0x00, 0x40, 0x02, 0x20, 0x00, 
   0x10, 0x01, 0x40, 0x00, 0x10, 0x00, 0x80, 0x00, 0x00, 0x10, 0x00, 0x00, 
   0x00, 0x04, 0x00, 0x00, 0x08, 0x00, 0x40, 0x00, 0x08, 0x00, 0x80, 0x02, 
   0x20, 0x00, 0x88, 0x00, 0x20, 0x00, 0xf8, 0x0f, 0x80, 0x00, 0x00, 0x08, 
   0x00, 0x00, 0x00, 0x02, 0x00, 0x00, 0xf8, 0x1f, 0x40, 0x00, 0x04, 0x00, 
   0x00, 0x01, 0xf0, 0x0f, 0xc0, 0x00, 0x40, 0x00, 0x00, 0x08, 0x40, 0x00, 
   0x80, 0x08, 0x00, 0x00, 0x80, 0x01, 0x00, 0x00, 0x00, 0x10, 0x80, 0x00, 
   0x04, 0x00, 0x00, 0x01, 0x00, 0x08, 0xa0, 0x00, 0x80, 0x00, 0x00, 0x08, 
   0x40, 0x00, 0x00, 0x05, 0x00, 0x00, 0x40, 0x00, 0x00, 0x00, 0x00, 0x10, 
   0x80, 0x00, 0x04, 0x00, 0x80, 0x02, 0x00, 0x08, 0x90, 0x00, 0x80, 0x00, 
   0x00, 0x08, 0x20, 0x00, 0x00, 0x02, 0x00, 0x00, 0x20, 0x00, 0x00, 0x00, 
   0x00, 0x10, 0x00, 0x01, 0x04, 0x10, 0x40, 0x04, 0x00, 0x04, 0x88, 0x00, 
   0x00, 0x01, 0x00, 0x08, 0x10, 0x04, 0x00, 0x05, 0x00, 0x00, 0x20, 0x00, 
   0x00, 0x00, 0x00, 0x08, 0x00, 0x02, 0x08, 0x08, 0x20, 0x08, 0x00, 0x04, 
   0x80, 0x00, 0x00, 0x01, 0x00, 0x08, 0xf8, 0x0f, 0xc0, 0x08, 0x00, 0x00, 
   0xe0, 0x0f, 0x00, 0x00, 0x00, 0x08, 0x00, 0x04, 0xf0, 0x07, 0x18, 0x00, 
   0x00, 0x02, 0x80, 0x00, 0x00, 0x02, 0x00, 0x04, 0x00, 0x10, 0x30, 0x08, 
   0x00, 0x00, 0x00, 0x00, 0x00, 0x00, 0x00, 0x04, 0x00, 0x18, 0x00, 0x00, 
   0x06, 0x00, 0x40, 0x01, 0x80, 0x00, 0x00, 0x02, 0x00, 0x05, 0x00, 0x00, 
   0x0c, 0x00, 0x00, 0x00, 0x00, 0x00, 0x00, 0x00, 0x00, 0x00, 0x00, 0x00, 
   0x00, 0x00, 0x00, 0x00, 0x80, 0x00, 0x80, 0x00, 0x00, 0x00, 0x00, 0x02, 
   0x00, 0x00, 0x00, 0x00, 0x00, 0x00, 0x00, 0x00, 0x00, 0x00, 0x00, 0x00, 
   0x00, 0x00, 0x00, 0x00, 0x00, 0x00, 0x00, 0x00, 0x00, 0x00, 0x00, 0x00, 
   0x00, 0x00, 0x00, 0x00, 0x00, 0x00, 0x00, 0x00, 0x00, 0x00, 0x00, 0x00, 
   0x40, 0x00, 0x40, 0x00, 0x80, 0x00, 0x00, 0x00, 0x80, 0x00, 0x00, 0x00, 
   0x00, 0x00, 0x00, 0x00, 0x00, 0x00, 0x00, 0x00, 0x00, 0x00, 0x80, 0x03, 
   0x00, 0x00, 0x40, 0x00, 0x40, 0x00, 0x80, 0x00, 0x00, 0x00, 0x80, 0x00, 
   0xf8, 0x1f, 0xfe, 0x3f, 0xfc, 0x3f, 0xfc, 0x03, 0x00, 0x00, 0x00, 0x00, 
   0x40, 0x04, 0x00, 0x00, 0x40, 0x00, 0x20, 0x04, 0x80, 0x00, 0x00, 0x10, 
   0x80, 0x00, 0x00, 0x10, 0x80, 0x00, 0x08, 0x00, 0x00, 0x02, 0x00, 0x00, 
   0x00, 0x00, 0x20, 0x08, 0x00, 0x00, 0x40, 0x00, 0x20, 0x04, 0xfe, 0x3f, 
   0x08, 0x10, 0x80, 0x00, 0x00, 0x10, 0x80, 0x00, 0x08, 0x00, 0x00, 0x01, 
   0xfc, 0x1f, 0xfe, 0x7f, 0x20, 0x08, 0x00, 0x00, 0xfe, 0x3f, 0x10, 0x02, 
   0x80, 0x00, 0x08, 0x10, 0x40, 0x00, 0x00, 0x10, 0x80, 0x00, 0x08, 0x00, 
   0x80, 0x00, 0x04, 0x10, 0xfe, 0x7f, 0x00, 0x04, 0x00, 0x00, 0x40, 0x01, 
   0x10, 0x02, 0x80, 0x00, 0x08, 0x10, 0x40, 0x00, 0xf8, 0x1f, 0x80, 0x00, 
   0x08, 0x00, 0xc0, 0x1f, 0x04, 0x10, 0xfe, 0x7f, 0x80, 0x03, 0x00, 0x00, 
   0x40, 0x01, 0xf8, 0x01, 0xf0, 0x00, 0x08, 0x10, 0x40, 0x00, 0x08, 0x00, 
   0x80, 0x00, 0x08, 0x00, 0x00, 0x10, 0x04, 0x10, 0x1e, 0x78, 0x00, 0x04, 
   0x00, 0x00, 0x40, 0x01, 0x80, 0x00, 0x08, 0x00, 0x08, 0x10, 0x20, 0x00, 
   0x08, 0x00, 0x80, 0x00, 0x08, 0x00, 0x00, 0x10, 0x04, 0x10, 0x06, 0x60, 
   0x00, 0x08, 0x00, 0x00, 0x20, 0x01, 0x40, 0x00, 0x04, 0x00, 0x04, 0x10, 
   0x20, 0x00, 0x08, 0x00, 0x80, 0x00, 0x08, 0x00, 0x00, 0x10, 0x04, 0x10, 
   0x02, 0x40, 0x20, 0x08, 0x00, 0x00, 0x20, 0x01, 0x20, 0x02, 0x04, 0x00, 
   0x04, 0x1e, 0x10, 0x02, 0x08, 0x00, 0x80, 0x00, 0x08, 0x00, 0x00, 0x10, 
   0x04, 0x10, 0x00, 0x00, 0x20, 0x08, 0x00, 0x00, 0x20, 0x01, 0x10, 0x04, 
   0x04, 0x00, 0xfc, 0x11, 0x08, 0x04, 0x08, 0x00, 0x80, 0x00, 0x04, 0x00, 
   0x00, 0x10, 0x04, 0x10, 0x00, 0x00, 0x40, 0x04, 0x00, 0x00, 0x10, 0x01, 
   0xf8, 0x0f, 0x04, 0x10, 0x00, 0x10, 0xfc, 0x0f, 0x04, 0x00, 0x80, 0x00, 
   0x04, 0x00, 0x00, 0x08, 0x00, 0x00, 0x00, 0x00, 0x80, 0x03, 0x00, 0x00, 
   0x08, 0x01, 0x00, 0x08, 0x08, 0x08, 0x00, 0x00, 0x00, 0x10, 0x04, 0x00, 
   0x80, 0x00, 0x02, 0x00, 0x80, 0x08, 0x00, 0x00, 0x00, 0x00, 0x00, 0x00, 
   0x00, 0x00, 0x06, 0x3e, 0x00, 0x00, 0xf0, 0x07, 0x00, 0x00, 0x00, 0x00, 
   0x02, 0x00, 0x80, 0x00, 0x01, 0x00, 0x00, 0x05, 0x00, 0x00, 0x00, 0x00, 
   0x00, 0x00, 0x00, 0x00, 0x00, 0x00, 0x00, 0x00, 0x00, 0x00, 0x00, 0x00, 
   0x00, 0x00, 0x01, 0x00, 0x00, 0x00, 0x00, 0x00, 0x00, 0x02, 0x00, 0x00, 
   0x00, 0x00, 0x00, 0x00, 0x00, 0x00, 0x00, 0x00, 0x00, 0x00, 0x00, 0x00, 
   0x00, 0x00, 0x00, 0x00, 0x00, 0x00, 0x00, 0x00, 0x00, 0x00, 0x00, 0x00, 
   0x00, 0x00, 0xc0, 0x03, 0x00, 0x00, 0x00, 0x00, 0x00, 0x00, 0x00, 0x00, 
   0x00, 0x00, 0x00, 0x00, 0x00, 0x00, 0x00, 0x00, 0x00, 0x00, 0x00, 0x00, 
   0x80, 0x00, 0x00, 0x00, 0x30, 0x0c, 0x00, 0x03, 0x00, 0x00, 0x80, 0x00, 
   0x00, 0x00, 0x10, 0x02, 0x00, 0x00, 0x00, 0x00, 0xf0, 0x07, 0x00, 0x00, 
   0x00, 0x00, 0x90, 0x00, 0xfc, 0x1f, 0x08, 0x10, 0x80, 0x02, 0x00, 0x00, 
   0x80, 0x00, 0xf8, 0x0f, 0x10, 0x02, 0x00, 0x00, 0x00, 0x00, 0x10, 0x04, 
   0x00, 0x00, 0x00, 0x00, 0x90, 0x00, 0x08, 0x00, 0x04, 0x20, 0x80, 0x02, 
   0x00, 0x00, 0x80, 0x00, 0x00, 0x08, 0x10, 0x02, 0x00, 0x00, 0x00, 0x00, 
   0x10, 0x04, 0x00, 0x00, 0x00, 0x00, 0x88, 0x00, 0x08, 0x00, 0xf4, 0x2f, 
   0x40, 0x02, 0x00, 0x00, 0x40, 0x00, 0x00, 0x04, 0xfe, 0x3f, 0x00, 0x00, 
   0x00, 0x00, 0x10, 0x04, 0x00, 0x00, 0x00, 0x00, 0xf8, 0x1f, 0x08, 0x00, 
   0x02, 0x41, 0x40, 0x02, 0x00, 0x00, 0x40, 0x00, 0x20, 0x04, 0x10, 0x02, 
   0x00, 0x00, 0x00, 0x00, 0x50, 0x04, 0x00, 0x00, 0x00, 0x00, 0x80, 0x10, 
   0x08, 0x00, 0x02, 0x41, 0x20, 0x02, 0x00, 0x00, 0x20, 0x00, 0x40, 0x02, 
   0x10, 0x02, 0x00, 0x00, 0x00, 0x00, 0x90, 0x04, 0x00, 0x00, 0x00, 0x00, 
   0x80, 0x10, 0x08, 0x00, 0x22, 0x47, 0x20, 0x02, 0x00, 0x00, 0x20, 0x00, 
   0x80, 0x02, 0x10, 0x02, 0x00, 0x00, 0x00, 0x00, 0x10, 0x05, 0x00, 0x00, 
   0x00, 0x00, 0x80, 0x10, 0x08, 0x00, 0x22, 0x41, 0x10, 0x02, 0x00, 0x00, 
   0x10, 0x00, 0x00, 0x01, 0x10, 0x01, 0x00, 0x00, 0x00, 0x00, 0x10, 0x04, 
   0x00, 0x00, 0x00, 0x00, 0x40, 0x10, 0x08, 0x00, 0x24, 0x21, 0xf0, 0x0f, 
   0x00, 0x00, 0x08, 0x00, 0x00, 0x01, 0x10, 0x01, 0x00, 0x00, 0x00, 0x00, 
   0x10, 0x04, 0x00, 0x00, 0x00, 0x00, 0x40, 0x10, 0x08, 0x00, 0xf4, 0x2f, 
   0x00, 0x02, 0x00, 0x00, 0x04, 0x00, 0x80, 0x02, 0x90, 0x00, 0x00, 0x00, 
   0x00, 0x00, 0x10, 0x04, 0x00, 0x00, 0x00, 0x00, 0x20, 0x10, 0x08, 0x00, 
   0x08, 0x10, 0x00, 0x02, 0x00, 0x00, 0xfc, 0x1f, 0x40, 0x04, 0x10, 0x00, 
   0x00, 0x00, 0x00, 0x00, 0x10, 0x04, 0x00, 0x00, 0x00, 0x00, 0x20, 0x10, 
   0x08, 0x00, 0x30, 0x0c, 0x00, 0x02, 0x00, 0x00, 0x00, 0x00, 0x20, 0x00, 
   0xe0, 0x0f, 0x00, 0x00, 0x00, 0x00, 0xf0, 0x07, 0x00, 0x00, 0x00, 0x00, 
   0x10, 0x08, 0xf0, 0x3f, 0xc0, 0x03, 0x00, 0x00, 0x00, 0x00, 0x00, 0x00, 
   0x10, 0x00, 0x00, 0x00, 0x00, 0x00, 0x00, 0x00, 0x00, 0x00, 0x00, 0x00, 
   0x00, 0x00, 0x08, 0x0a, 0x00, 0x00, 0x00, 0x00, 0x00, 0x00, 0x00, 0x00, 
   0x00, 0x00, 0x00, 0x00, 0x00, 0x00, 0x00, 0x00, 0x00, 0x00, 0x00, 0x00, 
   0x00, 0x00, 0x00, 0x00, 0x04, 0x04, 0x00, 0x00};
